# xmcd
#
# Track frame offsets:
#	150
#	21161
#	41632
#	60594
#	77754
#	94459
#	111204
#	125862
#	143838
#	157988
#	176569
#	263026
#
# Disc length: 3988 seconds
#
# Revision: 1
# Processed by: cddbd v1.5.2PL0 Copyright (c) Steve Scherf et al.
# Submitted via: EasyCDDAExtractor 2010.6.0.0
#
DISCID=a40f920c
DTITLE=Tiziano Ferro - Nessuno È Solo
DYEAR=2006
DGENRE=Italiani
TTITLE0=Tarantola D'africa
TTITLE1=Ti Scatterò Una Foto
TTITLE2=Ed Ero Contentissimo
TTITLE3=Stop! Dimentica
TTITLE4=E Fuori È Buio
TTITLE5=Salutandotiaffogo
TTITLE6=E Raffaella È Mia
TTITLE7=La Paura Che...
TTITLE8=Baciano Le Donne
TTITLE9=Già Ti Guarda Alice
TTITLE10=Mio Fratello
TTITLE11=Enhanced Section
EXTD=
EXTT0=
EXTT1=
EXTT2=
EXTT3=
EXTT4=
EXTT5=
EXTT6=
EXTT7=
EXTT8=
EXTT9=
EXTT10=
EXTT11=
PLAYORDER=
